<svg width="24" height="26" viewBox="0 0 24 26" fill="none" xmlns="http://www.w3.org/2000/svg">
<path d="M16 19.6667H22.6667L20.7934 17.7934C20.2854 17.2854 20 16.5964 20 15.8779V11.6667C20 8.18342 17.7738 5.22012 14.6667 4.12189V3.66667C14.6667 2.19391 13.4728 1 12 1C10.5272 1 9.33333 2.19391 9.33333 3.66667V4.12189C6.22615 5.22012 4 8.18342 4 11.6667V15.8779C4 16.5964 3.7146 17.2854 3.20658 17.7934L1.33333 19.6667H8M16 19.6667V21C16 23.2091 14.2091 25 12 25C9.79086 25 8 23.2091 8 21V19.6667M16 19.6667H8" stroke="#E8E8E8" stroke-linecap="round" stroke-linejoin="round"/>
</svg>
