<svg width="12" height="12" viewBox="0 0 12 12" fill="none" xmlns="http://www.w3.org/2000/svg">
<path d="M6 11.375C3.035 11.375 0.625 8.965 0.625 6C0.625 3.035 3.035 0.625 6 0.625C8.965 0.625 11.375 3.035 11.375 6C11.375 8.965 8.965 11.375 6 11.375ZM6 1.375C3.45 1.375 1.375 3.45 1.375 6C1.375 8.55 3.45 10.625 6 10.625C8.55 10.625 10.625 8.55 10.625 6C10.625 3.45 8.55 1.375 6 1.375Z" fill="#292D32"/>
<path d="M7.85501 7.965C7.79001 7.965 7.72501 7.95 7.66501 7.91L6.11501 6.985C5.73001 6.755 5.44501 6.25 5.44501 5.805V3.755C5.44501 3.55 5.61501 3.38 5.82001 3.38C6.02501 3.38 6.19501 3.55 6.19501 3.755V5.805C6.19501 5.985 6.34501 6.25001 6.50001 6.34L8.05001 7.265C8.23001 7.37 8.28501 7.60001 8.18001 7.78C8.10501 7.9 7.98001 7.965 7.85501 7.965Z" fill="#292D32"/>
</svg>
