<svg width="32" height="32" viewBox="0 0 32 32" fill="none" xmlns="http://www.w3.org/2000/svg">
<circle cx="16" cy="16" r="16" fill="#FFE7EA"/>
<path fill-rule="evenodd" clip-rule="evenodd" d="M10.6001 10.6C10.6001 9.60594 11.406 8.80005 12.4001 8.80005H16.5273C17.0047 8.80005 17.4625 8.98969 17.8001 9.32726L20.8729 12.4C21.2105 12.7376 21.4001 13.1955 21.4001 13.6728V21.4C21.4001 22.3942 20.5942 23.2 19.6001 23.2H12.4001C11.406 23.2 10.6001 22.3942 10.6001 21.4V10.6ZM12.4001 16C12.4001 15.503 12.803 15.1 13.3001 15.1H18.7001C19.1972 15.1 19.6001 15.503 19.6001 16C19.6001 16.4971 19.1972 16.9 18.7001 16.9H13.3001C12.803 16.9 12.4001 16.4971 12.4001 16ZM13.3001 18.7C12.803 18.7 12.4001 19.103 12.4001 19.6C12.4001 20.0971 12.803 20.5 13.3001 20.5H18.7001C19.1972 20.5 19.6001 20.0971 19.6001 19.6C19.6001 19.103 19.1972 18.7 18.7001 18.7H13.3001Z" fill="#FA1131"/>
</svg>
