<svg width="25" height="25" viewBox="0 0 25 25" fill="none" xmlns="http://www.w3.org/2000/svg">
<g clip-path="url(#clip0_391_4795)">
<path d="M8.86055 1.28937C6.46258 2.12125 4.39457 3.70018 2.96029 5.79425C1.526 7.88832 0.801037 10.3871 0.891883 12.9237C0.982728 15.4602 1.88459 17.9008 3.46501 19.8869C5.04543 21.873 7.22109 23.2999 9.67243 23.9581C11.6598 24.4709 13.7419 24.4934 15.7399 24.0237C17.5499 23.6172 19.2233 22.7476 20.5962 21.5C22.0251 20.1619 23.0622 18.4596 23.5962 16.5762C24.1763 14.5281 24.2796 12.3743 23.8981 10.28H12.7381V14.9094H19.2012C19.072 15.6477 18.7952 16.3524 18.3873 16.9813C17.9795 17.6102 17.4489 18.1503 16.8274 18.5694C16.0383 19.0916 15.1486 19.4429 14.2156 19.6006C13.2798 19.7747 12.32 19.7747 11.3843 19.6006C10.4358 19.4047 9.53863 19.0133 8.74993 18.4512C7.48271 17.5542 6.5312 16.2799 6.03118 14.81C5.52285 13.3126 5.52285 11.6893 6.03118 10.1919C6.3871 9.14228 6.97549 8.18663 7.75243 7.39625C8.64154 6.47515 9.76718 5.81674 11.0058 5.49326C12.2445 5.16979 13.5484 5.19374 14.7743 5.5625C15.7321 5.85635 16.6078 6.37002 17.3318 7.0625C18.0606 6.3375 18.7881 5.61062 19.5143 4.88187C19.8893 4.49 20.2981 4.11687 20.6674 3.71562C19.5622 2.68722 18.2649 1.88694 16.8499 1.36062C14.2731 0.424977 11.4536 0.399833 8.86055 1.28937Z" fill="white"/>
<path d="M8.8607 1.28937C11.4536 0.399224 14.2731 0.423707 16.8501 1.35874C18.2653 1.88864 19.562 2.69277 20.6657 3.72499C20.2907 4.12624 19.8951 4.50124 19.5126 4.89124C18.7851 5.61749 18.0582 6.34124 17.332 7.06249C16.608 6.37001 15.7322 5.85635 14.7745 5.56249C13.5489 5.19244 12.2451 5.16711 11.0061 5.48926C9.76712 5.81141 8.64079 6.46861 7.7507 7.38874C6.97377 8.17912 6.38538 9.13477 6.02945 10.1844L2.14258 7.17499C3.53384 4.41604 5.94273 2.30566 8.8607 1.28937Z" fill="#E33629"/>
<path d="M1.11116 10.1562C1.31992 9.12081 1.66677 8.1181 2.14241 7.17499L6.02928 10.1919C5.52095 11.6893 5.52095 13.3126 6.02928 14.81C4.73428 15.81 3.43866 16.815 2.14241 17.825C0.952064 15.4556 0.589031 12.7559 1.11116 10.1562Z" fill="#F8BD00"/>
<path d="M12.7381 10.2781H23.8981C24.2797 12.3724 24.1764 14.5262 23.5963 16.5744C23.0623 18.4578 22.0252 20.16 20.5963 21.4981C19.3419 20.5194 18.0819 19.5481 16.8275 18.5694C17.4494 18.1499 17.9802 17.6092 18.3881 16.9796C18.796 16.3501 19.0726 15.6447 19.2013 14.9056H12.7381C12.7363 13.3644 12.7381 11.8213 12.7381 10.2781Z" fill="#587DBD"/>
<path d="M2.14062 17.825C3.43687 16.825 4.7325 15.82 6.0275 14.81C6.52851 16.2804 7.48138 17.5548 8.75 18.4512C9.54116 19.0107 10.4403 19.399 11.39 19.5912C12.3257 19.7653 13.2855 19.7653 14.2213 19.5912C15.1543 19.4335 16.044 19.0823 16.8331 18.56C18.0875 19.5387 19.3475 20.51 20.6019 21.4887C19.2292 22.737 17.5558 23.6073 15.7456 24.0144C13.7476 24.4841 11.6655 24.4616 9.67813 23.9487C8.10632 23.5291 6.63814 22.7892 5.36563 21.7756C4.01886 20.7062 2.91882 19.3586 2.14062 17.825Z" fill="#319F43"/>
</g>
<defs>
<clipPath id="clip0_391_4795">
<rect width="24" height="24" fill="white" transform="translate(0.5 0.5)"/>
</clipPath>
</defs>
</svg>
