<svg width="12" height="11" viewBox="0 0 12 11" fill="none" xmlns="http://www.w3.org/2000/svg">
<path d="M2.82034 8.6339C2.72033 8.61492 2.64032 8.59595 2.54031 8.55801C2.4403 8.52006 2.36029 8.50109 2.28028 8.46315C2.10026 8.38726 1.94024 8.2924 1.78022 8.17857C1.46018 7.96988 1.20015 7.6853 1.00012 7.3438C0.800098 7.02128 0.680083 6.64184 0.660081 6.28137C0.640078 6.09165 0.660081 5.92091 0.680083 5.73119C0.700085 5.63633 0.720088 5.56044 0.74009 5.46558C0.760093 5.37072 0.800098 5.29483 0.8201 5.19997L0.840102 5.46558C0.840102 5.56044 0.860105 5.63633 0.880107 5.73119C0.90011 5.90194 0.940115 6.07268 0.98012 6.22446C1.06013 6.54698 1.18014 6.85053 1.36017 7.13511C1.54019 7.41969 1.74021 7.6853 2.00024 7.93193C2.12026 8.04577 2.26028 8.1596 2.40029 8.27343C2.4603 8.33035 2.54031 8.38726 2.62032 8.44418L2.82034 8.6339ZM2.76034 9.31689C2.70033 9.35483 2.62032 9.3738 2.54031 9.39277C2.4603 9.41175 2.40029 9.43072 2.32028 9.43072C2.18027 9.44969 2.02025 9.46866 1.86023 9.44969C1.56019 9.43072 1.24015 9.35483 0.98012 9.22203C0.700085 9.08922 0.460056 8.88053 0.300037 8.6339C0.220027 8.52007 0.140017 8.38726 0.0800098 8.25446C0.0600073 8.19754 0.0400049 8.12165 0.0200024 8.04577C0.0200024 7.98885 0 7.93193 0 7.85605C0.0600073 7.91296 0.100012 7.96988 0.140017 8.00782C0.200024 8.06474 0.240029 8.12165 0.280034 8.1596C0.380046 8.25446 0.460056 8.34932 0.560068 8.42521C0.760093 8.59595 0.960117 8.74773 1.20015 8.86156C1.42017 8.97539 1.6802 9.07025 1.92023 9.14614C2.04025 9.18408 2.18027 9.20306 2.32028 9.241C2.38029 9.25997 2.4603 9.25997 2.52031 9.27894C2.62032 9.29792 2.68033 9.29791 2.76034 9.31689ZM7.28089 0.0965177C7.3809 0.11549 7.46091 0.153434 7.56092 0.191377C7.66093 0.229321 7.74094 0.267265 7.82095 0.305209C8.00098 0.400069 8.161 0.494929 8.32101 0.60876C8.64105 0.836424 8.90109 1.13998 9.08111 1.48147C9.26113 1.82297 9.36114 2.2024 9.36114 2.56287C9.36114 2.75259 9.34114 2.92334 9.30113 3.11306C9.28113 3.20792 9.26113 3.28381 9.22112 3.37867C9.18112 3.47353 9.16112 3.54941 9.12111 3.6253L9.10111 3.35969C9.10111 3.26483 9.10111 3.18895 9.08111 3.09409L9.0211 2.58184C8.96109 2.25932 8.84108 1.9368 8.68106 1.63325C8.52104 1.32969 8.32102 1.06409 8.08099 0.817452C7.96097 0.684648 7.82095 0.570817 7.70094 0.438013C7.64093 0.381097 7.56092 0.324181 7.48091 0.267265L7.28089 0.0965177ZM9.0211 0.0206299C9.10111 0.0396018 9.16112 0.0585738 9.22112 0.0965177C9.28113 0.11549 9.36114 0.153434 9.42115 0.191377C9.54116 0.267265 9.66118 0.343153 9.78119 0.438013C10.0012 0.627732 10.1812 0.855396 10.2813 1.121C10.4013 1.38661 10.4413 1.67119 10.4013 1.95577C10.3813 2.08857 10.3413 2.22138 10.3013 2.35418C10.2813 2.4111 10.2412 2.48698 10.2212 2.5439C10.1812 2.60082 10.1612 2.65773 10.1012 2.71465V2.52493V2.33521C10.1012 2.2024 10.0812 2.08857 10.0812 1.97474C10.0412 1.72811 10.0012 1.50044 9.90121 1.29175C9.8012 1.06409 9.68118 0.874368 9.54116 0.665676C9.46115 0.570817 9.38114 0.456985 9.30113 0.362125C9.26113 0.305209 9.22112 0.267265 9.16112 0.210349C9.12111 0.11549 9.0611 0.0585738 9.0211 0.0206299Z" fill="#42ADE2"/>
<path d="M1.60024 2.8474C1.20019 3.01815 1.06017 3.47348 1.24019 3.85292L3.7605 8.84254L5.16067 8.21646L2.64037 3.20787C2.46034 2.82843 2.00029 2.65768 1.60024 2.8474ZM8.22105 6.81254L9.70123 6.14852L6.82088 0.456936C6.62085 0.0774972 6.14079 -0.0932504 5.72074 0.0964691C5.32069 0.286189 5.14067 0.741516 5.34069 1.13993L8.22105 6.81254Z" fill="#FFDD67"/>
<path d="M5.74069 0.0775048C5.70068 0.0964767 5.66068 0.115449 5.62067 0.153393C6.00072 0.0585328 6.40077 0.22928 6.58079 0.570776L9.46114 6.26236L9.72117 6.14853L6.84082 0.456944C6.6408 0.0585329 6.16074 -0.112215 5.74069 0.0775048Z" fill="#EBA352"/>
<path d="M5.16064 8.19739L6.70083 7.49542L3.76047 1.69001C3.56044 1.2916 3.04038 1.10188 2.62033 1.2916C2.20028 1.48132 2.02026 1.97459 2.22028 2.373L5.16064 8.19739Z" fill="#FFDD67"/>
<path d="M2.62034 1.31075C2.58033 1.32972 2.54033 1.34869 2.50032 1.38664C2.88037 1.29178 3.32042 1.46252 3.50044 1.82299L5.32066 5.44663L5.76072 5.69327L3.76047 1.70916C3.56045 1.29178 3.06039 1.12103 2.62034 1.31075Z" fill="#EBA352"/>
<path d="M6.46076 7.0402L8.00095 6.33824L5.06059 0.532826C4.86057 0.134415 4.3405 -0.0553048 3.92045 0.153387C3.5004 0.343106 3.32038 0.836377 3.5204 1.23479L6.46076 7.0402Z" fill="#FFDD67"/>
<path d="M3.92049 0.134234C3.88049 0.153206 3.84048 0.19115 3.80048 0.210122C4.18052 0.115262 4.62058 0.28601 4.8006 0.646477L6.86085 4.74442L7.3009 4.99105L5.06063 0.532645C4.86061 0.115262 4.34054 -0.0554856 3.92049 0.134234ZM1.60021 2.84722C1.5602 2.86619 1.5202 2.88517 1.48019 2.92311C1.84024 2.82825 2.22028 2.999 2.3803 3.34049L3.88049 6.31909L4.32054 6.56572L2.64034 3.22666C2.46031 2.82825 2.00026 2.6575 1.60021 2.84722Z" fill="#EBA352"/>
<path d="M11.7614 2.27831C11.2214 1.8799 10.3413 2.31626 9.90121 3.68224C9.60117 4.63083 9.56116 4.91541 8.92109 5.19999L8.56104 4.49803C8.56104 4.49803 2.88035 7.09719 3.10038 7.51457C3.10038 7.51457 3.78046 9.5256 4.9406 10.4552C6.66081 11.8591 10.6813 10.3604 10.8613 6.73672C10.9613 4.63083 12.3415 2.71467 11.7614 2.27831Z" fill="#FFDD67"/>
<path d="M11.7614 2.27831C11.6614 2.20242 11.5414 2.16448 11.4214 2.14551C11.4414 2.16448 11.4814 2.16448 11.5014 2.18345C12.1015 2.61981 11.4814 3.62532 11.1414 4.53597C10.8613 5.25691 10.6213 5.99681 10.6613 6.71775C10.8213 9.86709 7.48093 11.3659 5.48068 10.7967C7.44092 11.5746 11.0814 10.0948 10.9213 6.81261C10.8813 6.09167 11.1014 5.38971 11.4014 4.63083C11.7214 3.72018 12.3415 2.71467 11.7614 2.27831Z" fill="#EBA352"/>
<path d="M9.10113 5.12378C7.86098 5.25658 6.04076 6.94509 7.32091 8.78537C6.3808 6.92611 7.92099 5.67397 8.90111 5.23761C9.00112 5.16172 9.10113 5.12378 9.10113 5.12378Z" fill="#EBA352"/>
</svg>
