<svg width="80" height="80" viewBox="0 0 80 80" fill="none" xmlns="http://www.w3.org/2000/svg">
<path d="M0 40C0 17.9086 17.9086 0 40 0C62.0914 0 80 17.9086 80 40C80 62.0914 62.0914 80 40 80C17.9086 80 0 62.0914 0 40Z" fill="#EF4623"/>
<path d="M25.5081 26.1586C25.5081 25.885 25.5081 25.6633 25.5081 25.4426C25.5081 24.3327 25.5059 23.2239 25.5081 22.1139C25.5115 20.7811 26.2927 20.0021 27.6346 20.001C32.2972 19.9987 36.9598 20.001 41.6225 20.001C45.021 20.001 48.4195 20.001 51.8179 20.001C53.2678 20.001 54.0187 20.7541 54.0209 22.2062C54.022 23.3297 54.0198 24.4531 54.0232 25.5777C54.0232 25.7567 54.0457 25.9357 54.0614 26.1597C55.1117 26.1597 56.1327 26.1529 57.1537 26.1642C57.5027 26.1676 57.8595 26.1788 58.1973 26.2554C59.7102 26.5942 60.8078 27.9011 60.8348 29.4479C60.8674 31.3019 60.8483 33.1559 60.8483 35.0099C60.8483 39.73 60.8483 44.4489 60.8483 49.1689C60.8483 49.7588 60.8584 50.3487 60.8404 50.9374C60.783 52.7746 59.3781 54.2132 57.5353 54.2593C55.9076 54.301 54.2776 54.2729 52.6487 54.274C49.8401 54.274 47.0315 54.2796 44.2228 54.2661C43.9009 54.265 43.7523 54.373 43.6409 54.6635C43.1208 56.0233 43.1084 57.3719 43.66 58.7261C43.7591 58.9693 43.8885 59.0661 44.1576 59.0537C44.6619 59.0312 45.1684 59.0492 45.6739 59.0469C45.9947 59.0447 46.2435 59.1516 46.2525 59.5085C46.2626 59.8946 46.0003 59.9993 45.6626 59.9993C43.6971 59.9982 41.7317 59.9993 39.7662 59.9993C37.8852 59.9993 36.0041 59.9993 34.1231 59.9993C33.997 59.9993 33.8698 60.0027 33.7437 59.9948C33.4454 59.9779 33.2653 59.8214 33.2709 59.5175C33.2766 59.2147 33.4657 59.0571 33.7595 59.0526C34.2931 59.0436 34.8278 59.0334 35.3602 59.0548C35.6259 59.065 35.7599 58.9783 35.86 58.7306C36.4274 57.3314 36.397 55.9445 35.8398 54.5487C35.7261 54.2639 35.5381 54.2729 35.3096 54.2729C31.068 54.2751 26.8274 54.2762 22.5858 54.2717C22.1941 54.2717 21.7922 54.2796 21.4117 54.2008C19.7727 53.8631 18.6841 52.5044 18.674 50.7832C18.6605 48.5082 18.6706 46.2331 18.6706 43.9581C18.6706 39.2245 18.6673 34.491 18.6729 29.7574C18.6751 27.9282 19.7659 26.5424 21.4714 26.2205C21.8665 26.1462 22.2819 26.1676 22.6883 26.1642C23.6001 26.1574 24.513 26.1619 25.5059 26.1619L25.5081 26.1586ZM25.507 27.1042C24.4173 27.1042 23.3806 27.103 22.3438 27.1042C20.6429 27.1064 19.623 28.1297 19.623 29.8362C19.623 36.1716 19.623 42.5082 19.623 48.8436C19.623 48.9922 19.623 49.1397 19.623 49.3007H59.8779C59.8869 49.1813 59.9004 49.0856 59.9004 48.9911C59.9004 42.5431 59.9049 36.0951 59.8982 29.646C59.8971 28.1882 58.8254 27.1233 57.3676 27.1064C56.3567 27.0951 55.3447 27.103 54.3339 27.1064C54.2404 27.1064 54.1481 27.1255 54.0232 27.139V27.6625C54.0232 33.4216 54.0018 39.1818 54.0389 44.9408C54.0479 46.2962 53.1024 47.2001 51.7988 47.1911C45.872 47.1517 39.9441 47.1742 34.0173 47.1731C31.8402 47.1731 29.6631 47.1787 27.486 47.1708C26.3794 47.1663 25.5205 46.3615 25.5171 45.2864C25.5036 40.7487 25.5092 36.2122 25.5081 31.6745C25.5081 30.1728 25.5081 28.6711 25.5081 27.1042H25.507ZM26.456 32.3713V32.843C26.456 36.8752 26.456 40.9063 26.456 44.9386C26.456 45.8695 26.8196 46.2286 27.7618 46.2286C35.7677 46.2286 43.7737 46.2286 51.7797 46.2286C52.7174 46.2286 53.0742 45.8695 53.0742 44.9284C53.0742 40.8962 53.0742 36.8651 53.0742 32.8328V32.3679H38.081C37.9054 33.5634 37.4045 34.5957 36.4781 35.3814C35.5516 36.1671 34.4732 36.5431 33.2507 36.479C30.9869 36.3608 29.5201 34.9987 28.8436 32.3713H26.456ZM59.8779 50.3104H19.65C19.4845 52.1408 20.5449 53.3183 22.3393 53.3183C33.9374 53.3194 45.5365 53.3183 57.1346 53.3183C58.9762 53.3183 60.0164 52.1892 59.8779 50.3104ZM28.8593 31.3829C29.2589 28.7803 31.1816 27.461 33.012 27.2786C34.0477 27.1751 35.0236 27.3923 35.9096 27.9529C37.1715 28.7522 37.8615 29.924 38.0788 31.3649H53.0461V26.5357H26.4886V31.3829H28.8593ZM26.456 25.5259H53.0742C53.0742 24.4216 53.0742 23.3545 53.0742 22.2884C53.0742 21.2809 52.7455 20.9522 51.7391 20.9511C43.8457 20.9511 35.9512 20.9646 28.0578 20.9376C26.6766 20.9331 26.4019 21.4104 26.4481 22.5732C26.4875 23.5515 26.456 24.5319 26.456 25.5259ZM36.7752 59.0312H42.7583C42.1155 57.4473 42.1639 55.8747 42.7516 54.3111H36.7764C37.3809 55.8972 37.3955 57.4439 36.7764 59.0312H36.7752ZM36.3621 34.097C37.5576 32.637 37.3381 30.4013 35.8758 29.1293C34.373 27.8223 32.1464 27.9405 30.7899 29.3972C29.5606 30.7176 29.4807 32.9927 30.5952 34.0835C31.0331 33.7356 31.4664 33.3912 31.8998 33.0478C31.131 31.9942 31.1625 30.8854 31.9876 30.0794C32.752 29.333 33.9475 29.2238 34.7433 29.9218C35.0923 30.2268 35.3737 30.6827 35.5235 31.124C35.7644 31.8343 35.4919 32.4962 35.0462 33.0467C35.4942 33.4036 35.9186 33.7413 36.3632 34.0947L36.3621 34.097ZM31.355 34.8242C32.4357 35.7889 34.6488 35.7776 35.5944 34.8017C34.5025 33.3664 32.367 33.3777 31.355 34.8242ZM33.4533 32.7495C34.0893 32.7585 34.6116 32.2587 34.6285 31.6261C34.6465 30.972 34.1343 30.4306 33.4882 30.4182C32.851 30.4058 32.3073 30.9473 32.3096 31.5912C32.3118 32.2283 32.8184 32.7405 33.4522 32.7495H33.4533Z" fill="white"/>
<path d="M45.3275 44.7281C43.9519 44.7281 42.5763 44.7326 41.2007 44.727C39.9061 44.7213 39.0314 43.8579 39.0179 42.569C39.0089 41.727 39.0078 40.8838 39.0179 40.0418C39.0337 38.7574 39.9185 37.8917 41.2108 37.8906C43.9485 37.8884 46.6851 37.8884 49.4228 37.8906C50.7387 37.8906 51.6145 38.7563 51.628 40.0733C51.637 40.9018 51.637 41.7304 51.628 42.5577C51.6134 43.8568 50.7477 44.7202 49.4554 44.7258C48.0798 44.7315 46.7042 44.727 45.3286 44.727L45.3275 44.7281ZM45.3207 43.787C46.6693 43.787 48.0168 43.7893 49.3653 43.787C50.2321 43.7848 50.6509 43.366 50.6565 42.4936C50.6621 41.6932 50.6644 40.8928 50.6565 40.0913C50.6475 39.2853 50.2411 38.8621 49.434 38.8587C46.6952 38.8486 43.9575 38.8486 41.2187 38.8587C40.4104 38.8621 40.0007 39.2853 39.9917 40.0868C39.9827 40.8872 39.9849 41.6876 39.9905 42.4891C39.9962 43.3806 40.4138 43.7859 41.32 43.787C42.6539 43.7893 43.9879 43.787 45.3218 43.787H45.3207Z" fill="white"/>
<path d="M45.3196 34.8625C46.765 34.8625 48.2092 34.8625 49.6546 34.8625C49.7807 34.8625 49.9428 34.8208 50.025 34.8828C50.1871 35.0043 50.41 35.1833 50.4122 35.342C50.4145 35.4963 50.1927 35.6831 50.0295 35.7979C49.9327 35.8666 49.7582 35.8295 49.6175 35.8295C46.756 35.8306 43.8933 35.8306 41.0318 35.8295C40.4487 35.8295 40.2033 35.6843 40.2021 35.3465C40.2021 35.0055 40.4442 34.8625 41.0262 34.8614C42.4569 34.8614 43.8877 34.8614 45.3185 34.8614L45.3196 34.8625Z" fill="white"/>
<path d="M32.5347 39.202C31.2447 39.202 29.9546 39.202 28.6646 39.2009C28.525 39.2009 28.3539 39.229 28.2548 39.1603C28.1096 39.0601 27.9318 38.889 27.925 38.7404C27.9183 38.5918 28.0804 38.4039 28.2166 38.2935C28.3077 38.2204 28.4833 38.2395 28.6218 38.2395C31.2301 38.2373 33.8383 38.2373 36.4477 38.2384C36.5456 38.2384 36.6469 38.2305 36.7415 38.2485C37.0071 38.3003 37.2131 38.4669 37.1422 38.7359C37.0961 38.9104 36.8991 39.0646 36.737 39.1795C36.6514 39.2403 36.4916 39.2009 36.3655 39.2009C35.0889 39.2009 33.8135 39.2009 32.537 39.2009L32.5347 39.202Z" fill="white"/>
<path d="M32.5587 41.7832C31.227 41.7832 29.8941 41.7787 28.5624 41.7866C28.2146 41.7888 27.9354 41.7157 27.9039 41.3149C27.8803 41.0099 28.1246 40.8365 28.5546 40.8365C31.2191 40.8342 33.8836 40.8342 36.5482 40.8365C37.0142 40.8365 37.3024 41.1371 37.12 41.4635C37.0299 41.6245 36.7519 41.7663 36.556 41.7697C35.2243 41.7956 33.8915 41.7832 32.5598 41.7832H32.5587Z" fill="white"/>
<path d="M32.5102 44.3802C31.2201 44.3802 29.9301 44.3802 28.64 44.3802C28.5274 44.3802 28.38 44.4185 28.3113 44.3622C28.1537 44.2328 27.9308 44.0572 27.9297 43.8996C27.9297 43.7465 28.1526 43.563 28.3169 43.4504C28.4149 43.384 28.5894 43.4256 28.7289 43.4256C31.2674 43.4256 33.8058 43.4256 36.3431 43.4256C36.4692 43.4256 36.5964 43.4223 36.7214 43.4346C37.0017 43.4617 37.157 43.6204 37.1559 43.9029C37.1559 44.1866 36.9871 44.3375 36.7169 44.3735C36.6066 44.3881 36.4929 44.3791 36.3803 44.3791C35.0903 44.3791 33.8002 44.3791 32.5102 44.3791V44.3802Z" fill="white"/>
<path d="M43.9551 23.7293C43.0016 23.7293 42.0471 23.7248 41.0936 23.7315C40.7536 23.7338 40.488 23.6302 40.4835 23.2576C40.479 22.8805 40.7435 22.7781 41.0835 22.7781C42.9915 22.7826 44.8996 22.7826 46.8065 22.7781C47.1408 22.7781 47.4177 22.867 47.4177 23.2464C47.4177 23.6178 47.1577 23.7315 46.8155 23.7293C45.862 23.7237 44.9075 23.727 43.954 23.727L43.9551 23.7293Z" fill="white"/>
<path d="M34.9678 23.2655C34.9621 24.0738 34.2991 24.7357 33.4965 24.7323C32.6984 24.7301 32.0252 24.0591 32.0196 23.2599C32.0139 22.4415 32.6939 21.7728 33.5224 21.783C34.3374 21.792 34.9723 22.4438 34.9678 23.2644V23.2655ZM33.5021 23.7608C33.8184 23.7372 33.9929 23.5616 34.0143 23.2565C34.0334 22.9785 33.752 22.7072 33.4762 22.7376C33.1734 22.7713 32.9888 22.9492 32.9978 23.2655C33.0068 23.5818 33.1959 23.7394 33.5021 23.7597V23.7608Z" fill="white"/>
<path d="M29.5286 21.783C30.3447 21.783 30.9953 22.428 31.001 23.2407C31.0055 24.067 30.3267 24.7447 29.5094 24.7323C28.7079 24.7199 28.0471 24.0445 28.0528 23.243C28.0584 22.4359 28.7181 21.783 29.5286 21.783ZM29.5105 23.7597C29.8291 23.7507 30.0081 23.5807 30.0441 23.2779C30.0768 23.0021 29.8055 22.7173 29.5274 22.7376C29.2224 22.7589 29.0299 22.9334 29.0265 23.2464C29.0231 23.5571 29.201 23.7315 29.5117 23.7608L29.5105 23.7597Z" fill="white"/>
<path d="M38.9354 23.2543C38.9354 24.0682 38.2723 24.7334 37.4652 24.7323C36.6637 24.7301 35.986 24.0501 35.9883 23.2509C35.9894 22.4427 36.6569 21.783 37.4708 21.7841C38.2948 21.7841 38.9365 22.4291 38.9354 23.2554V23.2543ZM37.4855 23.7597C37.7973 23.7226 37.9841 23.5503 37.9785 23.2408C37.9729 22.9323 37.7759 22.7567 37.4719 22.7365C37.1815 22.7173 36.9462 22.9785 36.9665 23.2779C36.989 23.5976 37.1826 23.7417 37.4855 23.7597Z" fill="white"/>
<path d="M49.7001 22.7634C49.744 22.3908 49.7103 21.9845 50.1831 21.9642C50.7155 21.9417 50.6761 22.3886 50.729 22.7522C51.0724 22.7995 51.508 22.7454 51.4979 23.2576C51.4889 23.7518 51.0825 23.7372 50.7144 23.736C50.6964 24.1188 50.7043 24.5387 50.2281 24.5522C49.7159 24.5668 49.7305 24.1267 49.7136 23.7484C49.3467 23.7237 48.9234 23.7619 48.9133 23.2644C48.9031 22.7612 49.323 22.786 49.7001 22.7634Z" fill="white"/>
</svg>
