<svg width="32" height="32" viewBox="0 0 32 32" fill="none" xmlns="http://www.w3.org/2000/svg">
<circle cx="16" cy="16" r="16" fill="#FFE7EA"/>
<path d="M18.25 11.25V12.75M18.25 15.75V17.25M18.25 20.25V21.75M10.75 11.25C9.92157 11.25 9.25 11.9216 9.25 12.75V15C10.0784 15 10.75 15.6716 10.75 16.5C10.75 17.3284 10.0784 18 9.25 18V20.25C9.25 21.0784 9.92157 21.75 10.75 21.75H21.25C22.0784 21.75 22.75 21.0784 22.75 20.25V18C21.9216 18 21.25 17.3284 21.25 16.5C21.25 15.6716 21.9216 15 22.75 15V12.75C22.75 11.9216 22.0784 11.25 21.25 11.25H10.75Z" stroke="#FA1131" stroke-linecap="round" stroke-linejoin="round"/>
</svg>
