<svg width="24" height="24" viewBox="0 0 24 24" fill="none" xmlns="http://www.w3.org/2000/svg">
<path d="M12.4133 22.3293C12.4133 22.7389 12.4153 23.1182 12.4133 23.4968C12.4112 23.8146 12.2446 24.008 11.9869 23.9997C11.7381 23.9915 11.5889 23.807 11.5868 23.4975C11.584 23.1189 11.5868 22.7403 11.5868 22.332C8.90905 22.1759 6.59341 21.1935 4.69999 19.2999C2.81209 17.4111 1.82461 15.1057 1.66913 12.4135C1.28008 12.4135 0.904162 12.4149 0.528242 12.4135C0.187565 12.4121 -0.00868783 12.2525 0.00029555 11.9872C0.0085879 11.7316 0.195857 11.5879 0.528242 11.5865C0.897943 11.5851 1.26833 11.5865 1.66775 11.5865C1.82185 8.90809 2.80587 6.59305 4.69999 4.70012C6.58857 2.81271 8.89384 1.82548 11.5868 1.67073C11.5868 1.28109 11.5854 0.905268 11.5868 0.529445C11.5882 0.188164 11.7464 -0.00803765 12.0118 0.000252565C12.2675 0.00785193 12.4119 0.195763 12.4133 0.527372C12.4146 0.897668 12.4133 1.26727 12.4133 1.66797C15.0924 1.81996 17.4066 2.80511 19.2994 4.69873C21.1873 6.58752 22.1754 8.8922 22.3302 11.5858C22.7193 11.5858 23.0952 11.5845 23.4704 11.5858C23.8118 11.5872 24.008 11.7461 23.9997 12.0107C23.9921 12.2663 23.8035 12.4114 23.4725 12.4128C23.1021 12.4142 22.7324 12.4128 22.3316 12.4128C22.1789 15.0912 21.1935 17.4056 19.3001 19.2985C17.4115 21.1866 15.1069 22.1752 12.4133 22.3286V22.3293ZM18.9967 11.5858C18.8343 7.96508 15.7682 5.11739 12.4133 5.00893C12.4133 5.36886 12.4146 5.72948 12.4133 6.08942C12.4119 6.42379 12.2695 6.60963 12.0118 6.61792C11.7471 6.62621 11.5875 6.43001 11.5861 6.08873C11.5847 5.72879 11.5861 5.36886 11.5861 5.00823C7.84763 5.14848 5.03652 8.4466 5.02477 11.5858C5.36821 11.5858 5.71234 11.5858 6.05648 11.5858C6.42549 11.5865 6.62174 11.7337 6.61759 12.0059C6.61345 12.2753 6.41996 12.4128 6.04404 12.4135C5.70129 12.4135 5.35785 12.4135 5.0144 12.4135C5.10908 15.9672 8.26017 18.9268 11.5868 18.9793C11.5868 18.5924 11.5806 18.2063 11.5889 17.8194C11.5951 17.5278 11.8224 17.3296 12.0767 17.3897C12.3103 17.4449 12.4153 17.608 12.4146 17.8449C12.4133 18.2291 12.4146 18.6132 12.4146 18.9987C16.2022 18.8059 18.9172 15.5866 18.9856 12.4135C18.6339 12.4135 18.2822 12.4142 17.9304 12.4135C17.578 12.4128 17.3873 12.2691 17.3831 12.0059C17.379 11.7406 17.5725 11.5879 17.918 11.5865C18.2704 11.5851 18.6228 11.5865 18.9974 11.5865L18.9967 11.5858ZM4.10363 11.572C4.73247 7.20169 7.2105 4.72982 11.5702 4.1046V2.51841C6.57199 2.69803 2.64279 6.87837 2.52394 11.5727H4.10363V11.572ZM21.4706 11.5734C21.3642 6.62897 17.0673 2.58542 12.4236 2.53499V4.10391C16.7951 4.72775 19.2731 7.21067 19.8971 11.5741H21.4706V11.5734ZM11.575 19.8947C7.20773 19.2722 4.72763 16.79 4.10363 12.4328H2.51633C2.73332 17.6861 7.1642 21.4028 11.5757 21.4664V19.8947H11.575ZM12.4209 21.4774C17.6982 21.2999 21.4644 16.7341 21.4568 12.4128H19.8971C19.2676 16.8011 16.7819 19.2757 12.4209 19.8968V21.4768V21.4774Z" fill="#B5B5B5"/>
<path d="M12.0187 9.93127C13.1609 9.94233 14.0766 10.8777 14.0683 12.0266C14.06 13.1638 13.1146 14.0819 11.9662 14.0681C10.8273 14.0543 9.91448 13.1092 9.93038 11.961C9.94627 10.8342 10.8861 9.92091 12.0187 9.93197V9.93127ZM12.0125 13.2405C12.6848 13.2377 13.2425 12.6746 13.2404 12.0011C13.2376 11.3116 12.6751 10.7541 11.9876 10.7603C11.3124 10.7658 10.7596 11.324 10.7596 11.9997C10.7596 12.6857 11.3228 13.2439 12.0125 13.2411V13.2405Z" fill="#B5B5B5"/>
</svg>
