<svg width="32" height="32" viewBox="0 0 32 32" fill="none" xmlns="http://www.w3.org/2000/svg">
<circle cx="16" cy="16" r="15.5" stroke="#E8E8E8"/>
<path fill-rule="evenodd" clip-rule="evenodd" d="M9.7 11.5C9.7 11.0029 10.1029 10.6 10.6 10.6H21.4C21.8971 10.6 22.3 11.0029 22.3 11.5C22.3 11.997 21.8971 12.4 21.4 12.4H10.6C10.1029 12.4 9.7 11.997 9.7 11.5Z" fill="#E8E8E8"/>
<path fill-rule="evenodd" clip-rule="evenodd" d="M9.7 16C9.7 15.5029 10.1029 15.1 10.6 15.1H21.4C21.8971 15.1 22.3 15.5029 22.3 16C22.3 16.497 21.8971 16.9 21.4 16.9H10.6C10.1029 16.9 9.7 16.497 9.7 16Z" fill="#E8E8E8"/>
<path fill-rule="evenodd" clip-rule="evenodd" d="M9.7 20.5C9.7 20.0029 10.1029 19.6 10.6 19.6H21.4C21.8971 19.6 22.3 20.0029 22.3 20.5C22.3 20.997 21.8971 21.4 21.4 21.4H10.6C10.1029 21.4 9.7 20.997 9.7 20.5Z" fill="#E8E8E8"/>
</svg>
