<svg width="32" height="32" viewBox="0 0 32 32" fill="none" xmlns="http://www.w3.org/2000/svg">
<circle cx="16" cy="16" r="16" fill="#FFE7EA"/>
<path d="M16.3099 24.247C16.3099 24.5542 16.3115 24.8387 16.3099 25.1226C16.3084 25.3609 16.1835 25.506 15.9902 25.4998C15.8036 25.4936 15.6916 25.3552 15.6901 25.1231C15.688 24.8392 15.6901 24.5552 15.6901 24.249C13.6818 24.1319 11.9451 23.3951 10.525 21.9749C9.10907 20.5583 8.36846 18.8293 8.25185 16.8101C7.96006 16.8101 7.67812 16.8111 7.39618 16.8101C7.14067 16.8091 6.99348 16.6894 7.00022 16.4904C7.00644 16.2987 7.14689 16.1909 7.39618 16.1899C7.67346 16.1889 7.95125 16.1899 8.25081 16.1899C8.36639 14.1811 9.10441 12.4448 10.525 11.0251C11.9414 9.60953 13.6704 8.86911 15.6901 8.75305C15.6901 8.46082 15.6891 8.17895 15.6901 7.89708C15.6911 7.64112 15.8098 7.49397 16.0088 7.50019C16.2006 7.50589 16.3089 7.64682 16.3099 7.89553C16.311 8.17325 16.3099 8.45046 16.3099 8.75098C18.3193 8.86497 20.055 9.60383 21.4745 11.0241C22.8904 12.4406 23.6316 14.1692 23.7477 16.1894C24.0395 16.1894 24.3214 16.1883 24.6028 16.1894C24.8588 16.1904 25.006 16.3096 24.9998 16.508C24.9941 16.6997 24.8526 16.8085 24.6044 16.8096C24.3266 16.8106 24.0493 16.8096 23.7487 16.8096C23.6342 18.8184 22.8951 20.5542 21.475 21.9739C20.0586 23.3899 18.3302 24.1314 16.3099 24.2464V24.247ZM21.2475 16.1894C21.1257 13.4738 18.8262 11.338 16.3099 11.2567C16.3099 11.5266 16.311 11.7971 16.3099 12.0671C16.3089 12.3178 16.2021 12.4572 16.0088 12.4634C15.8103 12.4697 15.6906 12.3225 15.6896 12.0665C15.6885 11.7966 15.6896 11.5266 15.6896 11.2562C12.8857 11.3614 10.7774 13.835 10.7686 16.1894C11.0262 16.1894 11.2843 16.1894 11.5424 16.1894C11.8191 16.1899 11.9663 16.3003 11.9632 16.5044C11.9601 16.7065 11.815 16.8096 11.533 16.8101C11.276 16.8101 11.0184 16.8101 10.7608 16.8101C10.8318 19.4754 13.1951 21.6951 15.6901 21.7345C15.6901 21.4443 15.6854 21.1547 15.6916 20.8645C15.6963 20.6459 15.8668 20.4972 16.0575 20.5423C16.2327 20.5837 16.3115 20.706 16.311 20.8837C16.3099 21.1718 16.311 21.4599 16.311 21.749C19.1516 21.6044 21.1879 19.1899 21.2392 16.8101C20.9754 16.8101 20.7116 16.8106 20.4478 16.8101C20.1835 16.8096 20.0405 16.7018 20.0374 16.5044C20.0342 16.3054 20.1794 16.1909 20.4385 16.1899C20.7028 16.1889 20.9671 16.1899 21.248 16.1899L21.2475 16.1894ZM10.0777 16.179C10.5493 12.9013 12.4079 11.0474 15.6777 10.5785V9.3888C11.929 9.52352 8.98209 12.6588 8.89295 16.1795H10.0777V16.179ZM23.1029 16.18C23.0231 12.4717 19.8005 9.43906 16.3177 9.40124V10.5779C19.5963 11.0458 21.4548 12.908 21.9228 16.1806H23.1029V16.18ZM15.6813 22.421C12.4058 21.9542 10.5457 20.0925 10.0777 16.8246H8.88725C9.04999 20.7645 12.3731 23.5521 15.6818 23.5998V22.421H15.6813ZM16.3156 23.6081C20.2737 23.4749 23.0983 20.0505 23.0926 16.8096H21.9228C21.4507 20.1008 19.5865 21.9568 16.3156 22.4226V23.6076V23.6081Z" fill="#FA1131"/>
<path d="M16.014 14.9485C16.8707 14.9568 17.5574 15.6583 17.5512 16.52C17.545 17.3729 16.836 18.0615 15.9746 18.0511C15.1205 18.0407 14.4359 17.3319 14.4478 16.4708C14.4597 15.6257 15.1646 14.9407 16.014 14.949V14.9485ZM16.0093 17.4304C16.5136 17.4283 16.9319 17.006 16.9303 16.5008C16.9282 15.9837 16.5064 15.5656 15.9907 15.5703C15.4843 15.5744 15.0697 15.9931 15.0697 16.4998C15.0697 17.0143 15.4921 17.433 16.0093 17.4309V17.4304Z" fill="#FA1131"/>
</svg>
