<svg width="35" height="44" viewBox="0 0 35 44" fill="none" xmlns="http://www.w3.org/2000/svg">
<path d="M5.66667 43H29C31.5773 43 33.6667 40.9107 33.6667 38.3333V15.9665C33.6667 15.3477 33.4208 14.7542 32.9832 14.3166L20.3501 1.68342C19.9125 1.24583 19.319 1 18.7002 1H5.66667C3.08934 1 1 3.08934 1 5.66667V38.3333C1 40.9107 3.08934 43 5.66667 43Z" fill="#D9D9D9" stroke="white" stroke-width="2" stroke-linecap="round" stroke-linejoin="round"/>
<path d="M10.9883 24V18.3984H14.0547C14.9609 18.3984 15.4141 18.8529 15.4141 19.7617V20.5586C15.4141 21.4674 14.9609 21.9219 14.0547 21.9219H11.7891V24H10.9883ZM11.7891 21.1211H14.0117C14.2253 21.1211 14.3789 21.0742 14.4727 20.9805C14.5664 20.8867 14.6133 20.7331 14.6133 20.5195V19.8008C14.6133 19.5872 14.5664 19.4336 14.4727 19.3398C14.3789 19.2461 14.2253 19.1992 14.0117 19.1992H11.7891V21.1211ZM16.457 20.6094C16.457 20.5026 16.4766 20.4023 16.5156 20.3086C16.5573 20.2148 16.612 20.1341 16.6797 20.0664C16.75 19.9961 16.832 19.9414 16.9258 19.9023C17.0195 19.8607 17.1185 19.8398 17.2227 19.8398H19.3672V18.2383H20.1367V24H19.3672V23.2969C19.3594 23.3932 19.3333 23.4844 19.2891 23.5703C19.2448 23.6562 19.1875 23.7318 19.1172 23.7969C19.0495 23.8594 18.9714 23.9089 18.8828 23.9453C18.7943 23.9818 18.7005 24 18.6016 24H17.2227C17.1185 24 17.0195 23.9805 16.9258 23.9414C16.832 23.8997 16.75 23.8451 16.6797 23.7773C16.612 23.707 16.5573 23.625 16.5156 23.5312C16.4766 23.4375 16.457 23.3372 16.457 23.2305V20.6094ZM17.2227 23.2305H19.3672V20.6094H17.2227V23.2305ZM22.9609 19.0078V19.8398H24.3281V20.6094H22.9609V24H22.1914V20.6094H21.1758V19.8398H22.1914V19.0078C22.1914 18.901 22.2109 18.8021 22.25 18.7109C22.2917 18.6172 22.3477 18.5352 22.418 18.4648C22.4883 18.3945 22.5703 18.3398 22.6641 18.3008C22.7578 18.2591 22.8568 18.2383 22.9609 18.2383H24.3281V19.0078H22.9609Z" fill="#414141"/>
</svg>
