<svg width="32" height="32" viewBox="0 0 32 32" fill="none" xmlns="http://www.w3.org/2000/svg">
<circle cx="16" cy="16" r="16" fill="#FFE7EA"/>
<path d="M10 19L13.4393 15.5607C14.0251 14.9749 14.9749 14.9749 15.5607 15.5607L19 19M17.5 17.5L18.6893 16.3107C19.2751 15.7249 20.2249 15.7249 20.8107 16.3107L22 17.5M17.5 13H17.5075M11.5 22H20.5C21.3284 22 22 21.3284 22 20.5V11.5C22 10.6716 21.3284 10 20.5 10H11.5C10.6716 10 10 10.6716 10 11.5V20.5C10 21.3284 10.6716 22 11.5 22Z" stroke="#FA1131" stroke-width="1.5" stroke-linecap="round" stroke-linejoin="round"/>
</svg>
