<svg width="32" height="32" viewBox="0 0 32 32" fill="none" xmlns="http://www.w3.org/2000/svg">
<circle cx="16" cy="16" r="16" fill="#FFE7EA"/>
<path d="M14.7435 10.738C15.0633 9.42067 16.9367 9.42067 17.2565 10.738C17.4631 11.5889 18.4381 11.9928 19.1859 11.5371C20.3435 10.8318 21.6682 12.1565 20.9629 13.3141C20.5072 14.0619 20.9111 15.0369 21.762 15.2435C23.0793 15.5633 23.0793 17.4367 21.762 17.7565C20.9111 17.9631 20.5072 18.9381 20.9629 19.6859C21.6682 20.8435 20.3435 22.1682 19.1859 21.4629C18.4381 21.0072 17.4631 21.4111 17.2565 22.262C16.9367 23.5793 15.0633 23.5793 14.7435 22.262C14.5369 21.4111 13.5619 21.0072 12.8141 21.4629C11.6565 22.1682 10.3318 20.8435 11.0371 19.6859C11.4928 18.9381 11.0889 17.9631 10.238 17.7565C8.92067 17.4367 8.92067 15.5633 10.238 15.2435C11.0889 15.0369 11.4928 14.0619 11.0371 13.3141C10.3318 12.1565 11.6565 10.8318 12.8141 11.5371C13.5619 11.9928 14.5369 11.5889 14.7435 10.738Z" stroke="#FA1131" stroke-linecap="round" stroke-linejoin="round"/>
<path d="M18.25 16.5C18.25 17.7426 17.2426 18.75 16 18.75C14.7574 18.75 13.75 17.7426 13.75 16.5C13.75 15.2574 14.7574 14.25 16 14.25C17.2426 14.25 18.25 15.2574 18.25 16.5Z" stroke="#FA1131" stroke-linecap="round" stroke-linejoin="round"/>
</svg>
