<svg width="32" height="32" viewBox="0 0 32 32" fill="none" xmlns="http://www.w3.org/2000/svg">
<circle cx="16" cy="16" r="16" fill="#FFE7EA"/>
<path d="M24.1448 12.3571C24.0179 12.2464 23.861 12.176 23.694 12.1547C23.527 12.1334 23.3574 12.1622 23.2068 12.2375L19.6765 13.9953L16.729 9.09948C16.6532 8.97385 16.5462 8.86993 16.4185 8.79779C16.2907 8.72565 16.1465 8.68774 15.9998 8.68774C15.8531 8.68774 15.7089 8.72565 15.5811 8.79779C15.4534 8.86993 15.3464 8.97385 15.2707 9.09948L12.3232 13.9974L8.79419 12.2396C8.64396 12.165 8.47504 12.1365 8.30863 12.1575C8.14222 12.1785 7.98573 12.2483 7.8588 12.3579C7.73187 12.4676 7.64016 12.6123 7.59517 12.7739C7.55018 12.9354 7.55391 13.1067 7.60591 13.2662L10.2075 21.2368C10.2336 21.3169 10.2774 21.3901 10.3357 21.451C10.3939 21.5118 10.465 21.5589 10.5439 21.5885C10.6227 21.6182 10.7072 21.6299 10.7911 21.6225C10.875 21.6152 10.9562 21.5891 11.0287 21.5462C11.0463 21.5357 12.8442 20.4999 15.9998 20.4999C19.1554 20.4999 20.9533 21.5356 20.9695 21.5455C21.042 21.5888 21.1234 21.6153 21.2075 21.6228C21.2916 21.6304 21.3764 21.619 21.4555 21.5893C21.5346 21.5597 21.606 21.5126 21.6644 21.4516C21.7228 21.3905 21.7667 21.3171 21.7929 21.2368L24.3944 13.2683C24.4479 13.1088 24.4527 12.937 24.4083 12.7747C24.3638 12.6124 24.2721 12.467 24.1448 12.3571ZM20.9217 20.2771C20.0779 19.9192 18.3961 19.3749 15.9998 19.3749C13.6036 19.3749 11.9217 19.9192 11.0779 20.2771L8.87786 13.539L12.0468 15.1189C12.2387 15.2135 12.459 15.2329 12.6643 15.1731C12.8697 15.1134 13.0452 14.9789 13.1564 14.7962L15.9998 10.0698L18.8433 14.7948C18.9545 14.9772 19.1299 15.1115 19.3351 15.1712C19.5402 15.2309 19.7603 15.2118 19.9521 15.1175L23.1218 13.539L20.9217 20.2771ZM19.3657 18.0271C19.3427 18.1572 19.2747 18.2751 19.1735 18.3601C19.0723 18.445 18.9444 18.4917 18.8123 18.4918C18.7793 18.4918 18.7464 18.489 18.7139 18.4834C16.9172 18.1749 15.081 18.1749 13.2843 18.4834C13.1374 18.5093 12.9862 18.4758 12.8639 18.3902C12.7417 18.3046 12.6585 18.174 12.6325 18.0271C12.6066 17.8801 12.6401 17.7289 12.7257 17.6066C12.8113 17.4844 12.9419 17.4012 13.0889 17.3753C15.0149 17.0443 16.9833 17.0443 18.9093 17.3753C19.056 17.401 19.1865 17.4839 19.2721 17.6056C19.3578 17.7274 19.3917 17.8782 19.3664 18.0249L19.3657 18.0271Z" fill="#FA1131"/>
</svg>
